<?xml version="1.0" encoding="UTF-8" standalone="no"?>
<!DOCTYPE svg PUBLIC "-//W3C//DTD SVG 1.1//EN"
 "http://www.w3.org/Graphics/SVG/1.1/DTD/svg11.dtd">
<!-- Generated by graphviz version 2.43.0 (0)
 -->
<!-- Title: ast Pages: 1 -->
<svg width="1307pt" height="1016pt"
 viewBox="0.00 0.00 1307.00 1016.00" xmlns="http://www.w3.org/2000/svg" xmlns:xlink="http://www.w3.org/1999/xlink">
<g id="graph0" class="graph" transform="scale(1 1) rotate(0) translate(4 1012)">
<title>ast</title>
<polygon fill="white" stroke="transparent" points="-4,4 -4,-1012 1303,-1012 1303,4 -4,4"/>
<!-- N2 -->
<g id="node1" class="node">
<title>N2</title>
<polygon fill="none" stroke="black" points="488,-792 366,-792 366,-756 488,-756 488,-792"/>
<text text-anchor="middle" x="427" y="-770.3" font-family="Times,serif" font-size="14.00">listDeclaration</text>
</g>
<!-- N3 -->
<g id="node4" class="node">
<title>N3</title>
<polygon fill="none" stroke="black" points="180,-684 126,-684 126,-648 180,-648 180,-684"/>
<text text-anchor="middle" x="153" y="-662.3" font-family="Times,serif" font-size="14.00">var</text>
</g>
<!-- N2&#45;&gt;N3 -->
<g id="edge3" class="edge">
<title>N2&#45;&gt;N3</title>
<path fill="none" stroke="black" d="M382.98,-755.97C329.37,-735.23 239.8,-700.58 189.73,-681.21"/>
<polygon fill="black" stroke="black" points="190.85,-677.89 180.26,-677.55 188.33,-684.42 190.85,-677.89"/>
</g>
<!-- N6 -->
<g id="node26" class="node">
<title>N6</title>
<polygon fill="none" stroke="black" points="473,-684 393,-684 393,-648 473,-648 473,-684"/>
<text text-anchor="middle" x="433" y="-662.3" font-family="Times,serif" font-size="14.00">Function</text>
</g>
<!-- N2&#45;&gt;N6 -->
<g id="edge25" class="edge">
<title>N2&#45;&gt;N6</title>
<path fill="none" stroke="black" d="M427.96,-755.97C428.9,-739.38 430.35,-713.88 431.45,-694.43"/>
<polygon fill="black" stroke="black" points="434.95,-694.52 432.02,-684.34 427.96,-694.13 434.95,-694.52"/>
</g>
<!-- N4 -->
<g id="node2" class="node">
<title>N4</title>
<polygon fill="none" stroke="black" points="54,-576 0,-576 0,-540 54,-540 54,-576"/>
<text text-anchor="middle" x="27" y="-554.3" font-family="Times,serif" font-size="14.00">n</text>
</g>
<!-- N5 -->
<g id="node3" class="node">
<title>N5</title>
<polygon fill="none" stroke="black" points="180,-576 126,-576 126,-540 180,-540 180,-576"/>
<text text-anchor="middle" x="153" y="-554.3" font-family="Times,serif" font-size="14.00">5</text>
</g>
<!-- N3&#45;&gt;N4 -->
<g id="edge1" class="edge">
<title>N3&#45;&gt;N4</title>
<path fill="none" stroke="black" d="M132.76,-647.97C111.85,-630.38 79.04,-602.78 55.51,-582.99"/>
<polygon fill="black" stroke="black" points="57.52,-580.1 47.61,-576.34 53.01,-585.46 57.52,-580.1"/>
</g>
<!-- N3&#45;&gt;N5 -->
<g id="edge2" class="edge">
<title>N3&#45;&gt;N5</title>
<path fill="none" stroke="black" d="M153,-647.97C153,-631.38 153,-605.88 153,-586.43"/>
<polygon fill="black" stroke="black" points="156.5,-586.34 153,-576.34 149.5,-586.34 156.5,-586.34"/>
</g>
<!-- N7 -->
<g id="node5" class="node">
<title>N7</title>
<polygon fill="none" stroke="black" points="306,-576 252,-576 252,-540 306,-540 306,-576"/>
<text text-anchor="middle" x="279" y="-554.3" font-family="Times,serif" font-size="14.00">fact</text>
</g>
<!-- N9 -->
<g id="node6" class="node">
<title>N9</title>
<polygon fill="none" stroke="black" points="364,-468 310,-468 310,-432 364,-432 364,-468"/>
<text text-anchor="middle" x="337" y="-446.3" font-family="Times,serif" font-size="14.00">int</text>
</g>
<!-- N10 -->
<g id="node7" class="node">
<title>N10</title>
<polygon fill="none" stroke="black" points="490,-468 436,-468 436,-432 490,-432 490,-468"/>
<text text-anchor="middle" x="463" y="-446.3" font-family="Times,serif" font-size="14.00">k</text>
</g>
<!-- N8 -->
<g id="node8" class="node">
<title>N8</title>
<polygon fill="none" stroke="black" points="488,-576 378,-576 378,-540 488,-540 488,-576"/>
<text text-anchor="middle" x="433" y="-554.3" font-family="Times,serif" font-size="14.00">Type champs</text>
</g>
<!-- N8&#45;&gt;N9 -->
<g id="edge4" class="edge">
<title>N8&#45;&gt;N9</title>
<path fill="none" stroke="black" d="M417.58,-539.97C401.85,-522.61 377.3,-495.5 359.43,-475.77"/>
<polygon fill="black" stroke="black" points="362.01,-473.4 352.7,-468.34 356.82,-478.1 362.01,-473.4"/>
</g>
<!-- N8&#45;&gt;N10 -->
<g id="edge5" class="edge">
<title>N8&#45;&gt;N10</title>
<path fill="none" stroke="black" d="M437.82,-539.97C442.54,-523.3 449.8,-497.65 455.31,-478.16"/>
<polygon fill="black" stroke="black" points="458.74,-478.92 458.09,-468.34 452,-477.01 458.74,-478.92"/>
</g>
<!-- N11 -->
<g id="node9" class="node">
<title>N11</title>
<polygon fill="none" stroke="black" points="614,-576 560,-576 560,-540 614,-540 614,-576"/>
<text text-anchor="middle" x="587" y="-554.3" font-family="Times,serif" font-size="14.00">int</text>
</g>
<!-- N13 -->
<g id="node10" class="node">
<title>N13</title>
<polygon fill="none" stroke="black" points="744,-468 622,-468 622,-432 744,-432 744,-468"/>
<text text-anchor="middle" x="683" y="-446.3" font-family="Times,serif" font-size="14.00">listDeclaration</text>
</g>
<!-- N14 -->
<g id="node13" class="node">
<title>N14</title>
<polygon fill="none" stroke="black" points="669,-360 615,-360 615,-324 669,-324 669,-360"/>
<text text-anchor="middle" x="642" y="-338.3" font-family="Times,serif" font-size="14.00">var</text>
</g>
<!-- N13&#45;&gt;N14 -->
<g id="edge8" class="edge">
<title>N13&#45;&gt;N14</title>
<path fill="none" stroke="black" d="M676.41,-431.97C669.94,-415.22 659.95,-389.41 652.4,-369.89"/>
<polygon fill="black" stroke="black" points="655.58,-368.4 648.71,-360.34 649.05,-370.93 655.58,-368.4"/>
</g>
<!-- N15 -->
<g id="node11" class="node">
<title>N15</title>
<polygon fill="none" stroke="black" points="543,-252 489,-252 489,-216 543,-216 543,-252"/>
<text text-anchor="middle" x="516" y="-230.3" font-family="Times,serif" font-size="14.00">res</text>
</g>
<!-- N16 -->
<g id="node12" class="node">
<title>N16</title>
<polygon fill="none" stroke="black" points="669,-252 615,-252 615,-216 669,-216 669,-252"/>
<text text-anchor="middle" x="642" y="-230.3" font-family="Times,serif" font-size="14.00">1</text>
</g>
<!-- N14&#45;&gt;N15 -->
<g id="edge6" class="edge">
<title>N14&#45;&gt;N15</title>
<path fill="none" stroke="black" d="M621.76,-323.97C600.85,-306.38 568.04,-278.78 544.51,-258.99"/>
<polygon fill="black" stroke="black" points="546.52,-256.1 536.61,-252.34 542.01,-261.46 546.52,-256.1"/>
</g>
<!-- N14&#45;&gt;N16 -->
<g id="edge7" class="edge">
<title>N14&#45;&gt;N16</title>
<path fill="none" stroke="black" d="M642,-323.97C642,-307.38 642,-281.88 642,-262.43"/>
<polygon fill="black" stroke="black" points="645.5,-262.34 642,-252.34 638.5,-262.34 645.5,-262.34"/>
</g>
<!-- N17 -->
<g id="node14" class="node">
<title>N17</title>
<polygon fill="none" stroke="black" points="932,-468 856,-468 856,-432 932,-432 932,-468"/>
<text text-anchor="middle" x="894" y="-446.3" font-family="Times,serif" font-size="14.00">seqExpr</text>
</g>
<!-- N18 -->
<g id="node23" class="node">
<title>N18</title>
<polygon fill="none" stroke="black" points="921,-360 867,-360 867,-324 921,-324 921,-360"/>
<text text-anchor="middle" x="894" y="-338.3" font-family="Times,serif" font-size="14.00">for</text>
</g>
<!-- N17&#45;&gt;N18 -->
<g id="edge17" class="edge">
<title>N17&#45;&gt;N18</title>
<path fill="none" stroke="black" d="M894,-431.97C894,-415.38 894,-389.88 894,-370.43"/>
<polygon fill="black" stroke="black" points="897.5,-370.34 894,-360.34 890.5,-370.34 897.5,-370.34"/>
</g>
<!-- N27 -->
<g id="node24" class="node">
<title>N27</title>
<polygon fill="none" stroke="black" points="1047,-360 993,-360 993,-324 1047,-324 1047,-360"/>
<text text-anchor="middle" x="1020" y="-338.3" font-family="Times,serif" font-size="14.00">res</text>
</g>
<!-- N17&#45;&gt;N27 -->
<g id="edge18" class="edge">
<title>N17&#45;&gt;N27</title>
<path fill="none" stroke="black" d="M914.24,-431.97C935.15,-414.38 967.96,-386.78 991.49,-366.99"/>
<polygon fill="black" stroke="black" points="993.99,-369.46 999.39,-360.34 989.48,-364.1 993.99,-369.46"/>
</g>
<!-- N19 -->
<g id="node15" class="node">
<title>N19</title>
<polygon fill="none" stroke="black" points="795,-252 741,-252 741,-216 795,-216 795,-252"/>
<text text-anchor="middle" x="768" y="-230.3" font-family="Times,serif" font-size="14.00">i</text>
</g>
<!-- N20 -->
<g id="node16" class="node">
<title>N20</title>
<polygon fill="none" stroke="black" points="921,-252 867,-252 867,-216 921,-216 921,-252"/>
<text text-anchor="middle" x="894" y="-230.3" font-family="Times,serif" font-size="14.00">1</text>
</g>
<!-- N21 -->
<g id="node17" class="node">
<title>N21</title>
<polygon fill="none" stroke="black" points="1047,-252 993,-252 993,-216 1047,-216 1047,-252"/>
<text text-anchor="middle" x="1020" y="-230.3" font-family="Times,serif" font-size="14.00">k</text>
</g>
<!-- N23 -->
<g id="node18" class="node">
<title>N23</title>
<polygon fill="none" stroke="black" points="1110,-144 1056,-144 1056,-108 1110,-108 1110,-144"/>
<text text-anchor="middle" x="1083" y="-122.3" font-family="Times,serif" font-size="14.00">res</text>
</g>
<!-- N25 -->
<g id="node19" class="node">
<title>N25</title>
<polygon fill="none" stroke="black" points="1173,-36 1119,-36 1119,0 1173,0 1173,-36"/>
<text text-anchor="middle" x="1146" y="-14.3" font-family="Times,serif" font-size="14.00">i</text>
</g>
<!-- N26 -->
<g id="node20" class="node">
<title>N26</title>
<polygon fill="none" stroke="black" points="1299,-36 1245,-36 1245,0 1299,0 1299,-36"/>
<text text-anchor="middle" x="1272" y="-14.3" font-family="Times,serif" font-size="14.00">res</text>
</g>
<!-- N24 -->
<g id="node21" class="node">
<title>N24</title>
<polygon fill="none" stroke="black" points="1236,-144 1182,-144 1182,-108 1236,-108 1236,-144"/>
<text text-anchor="middle" x="1209" y="-122.3" font-family="Times,serif" font-size="14.00">*</text>
</g>
<!-- N24&#45;&gt;N25 -->
<g id="edge9" class="edge">
<title>N24&#45;&gt;N25</title>
<path fill="none" stroke="black" d="M1198.88,-107.97C1188.79,-90.99 1173.16,-64.7 1161.51,-45.09"/>
<polygon fill="black" stroke="black" points="1164.42,-43.15 1156.31,-36.34 1158.41,-46.73 1164.42,-43.15"/>
</g>
<!-- N24&#45;&gt;N26 -->
<g id="edge10" class="edge">
<title>N24&#45;&gt;N26</title>
<path fill="none" stroke="black" d="M1219.12,-107.97C1229.21,-90.99 1244.84,-64.7 1256.49,-45.09"/>
<polygon fill="black" stroke="black" points="1259.59,-46.73 1261.69,-36.34 1253.58,-43.15 1259.59,-46.73"/>
</g>
<!-- N22 -->
<g id="node22" class="node">
<title>N22</title>
<polygon fill="none" stroke="black" points="1173,-252 1119,-252 1119,-216 1173,-216 1173,-252"/>
<text text-anchor="middle" x="1146" y="-230.3" font-family="Times,serif" font-size="14.00">:=</text>
</g>
<!-- N22&#45;&gt;N23 -->
<g id="edge11" class="edge">
<title>N22&#45;&gt;N23</title>
<path fill="none" stroke="black" d="M1135.88,-215.97C1125.79,-198.99 1110.16,-172.7 1098.51,-153.09"/>
<polygon fill="black" stroke="black" points="1101.42,-151.15 1093.31,-144.34 1095.41,-154.73 1101.42,-151.15"/>
</g>
<!-- N22&#45;&gt;N24 -->
<g id="edge12" class="edge">
<title>N22&#45;&gt;N24</title>
<path fill="none" stroke="black" d="M1156.12,-215.97C1166.21,-198.99 1181.84,-172.7 1193.49,-153.09"/>
<polygon fill="black" stroke="black" points="1196.59,-154.73 1198.69,-144.34 1190.58,-151.15 1196.59,-154.73"/>
</g>
<!-- N18&#45;&gt;N19 -->
<g id="edge13" class="edge">
<title>N18&#45;&gt;N19</title>
<path fill="none" stroke="black" d="M873.76,-323.97C852.85,-306.38 820.04,-278.78 796.51,-258.99"/>
<polygon fill="black" stroke="black" points="798.52,-256.1 788.61,-252.34 794.01,-261.46 798.52,-256.1"/>
</g>
<!-- N18&#45;&gt;N20 -->
<g id="edge14" class="edge">
<title>N18&#45;&gt;N20</title>
<path fill="none" stroke="black" d="M894,-323.97C894,-307.38 894,-281.88 894,-262.43"/>
<polygon fill="black" stroke="black" points="897.5,-262.34 894,-252.34 890.5,-262.34 897.5,-262.34"/>
</g>
<!-- N18&#45;&gt;N21 -->
<g id="edge15" class="edge">
<title>N18&#45;&gt;N21</title>
<path fill="none" stroke="black" d="M914.24,-323.97C935.15,-306.38 967.96,-278.78 991.49,-258.99"/>
<polygon fill="black" stroke="black" points="993.99,-261.46 999.39,-252.34 989.48,-256.1 993.99,-261.46"/>
</g>
<!-- N18&#45;&gt;N22 -->
<g id="edge16" class="edge">
<title>N18&#45;&gt;N22</title>
<path fill="none" stroke="black" d="M921.45,-329.45C967.11,-310.25 1058.67,-271.73 1109.64,-250.29"/>
<polygon fill="black" stroke="black" points="1111.11,-253.47 1118.97,-246.37 1108.39,-247.02 1111.11,-253.47"/>
</g>
<!-- N12 -->
<g id="node25" class="node">
<title>N12</title>
<polygon fill="none" stroke="black" points="740,-576 686,-576 686,-540 740,-540 740,-576"/>
<text text-anchor="middle" x="713" y="-554.3" font-family="Times,serif" font-size="14.00">let</text>
</g>
<!-- N12&#45;&gt;N13 -->
<g id="edge19" class="edge">
<title>N12&#45;&gt;N13</title>
<path fill="none" stroke="black" d="M708.18,-539.97C703.46,-523.3 696.2,-497.65 690.69,-478.16"/>
<polygon fill="black" stroke="black" points="694,-477.01 687.91,-468.34 687.26,-478.92 694,-477.01"/>
</g>
<!-- N12&#45;&gt;N17 -->
<g id="edge20" class="edge">
<title>N12&#45;&gt;N17</title>
<path fill="none" stroke="black" d="M740.1,-541.13C770.88,-523.1 821.32,-493.56 856.02,-473.24"/>
<polygon fill="black" stroke="black" points="858.06,-476.11 864.92,-468.03 854.52,-470.07 858.06,-476.11"/>
</g>
<!-- N6&#45;&gt;N7 -->
<g id="edge21" class="edge">
<title>N6&#45;&gt;N7</title>
<path fill="none" stroke="black" d="M408.26,-647.97C382.29,-630.1 341.31,-601.89 312.47,-582.04"/>
<polygon fill="black" stroke="black" points="314.16,-578.95 303.94,-576.16 310.19,-584.72 314.16,-578.95"/>
</g>
<!-- N6&#45;&gt;N8 -->
<g id="edge22" class="edge">
<title>N6&#45;&gt;N8</title>
<path fill="none" stroke="black" d="M433,-647.97C433,-631.38 433,-605.88 433,-586.43"/>
<polygon fill="black" stroke="black" points="436.5,-586.34 433,-576.34 429.5,-586.34 436.5,-586.34"/>
</g>
<!-- N6&#45;&gt;N11 -->
<g id="edge23" class="edge">
<title>N6&#45;&gt;N11</title>
<path fill="none" stroke="black" d="M457.74,-647.97C483.71,-630.1 524.69,-601.89 553.53,-582.04"/>
<polygon fill="black" stroke="black" points="555.81,-584.72 562.06,-576.16 551.84,-578.95 555.81,-584.72"/>
</g>
<!-- N6&#45;&gt;N12 -->
<g id="edge24" class="edge">
<title>N6&#45;&gt;N12</title>
<path fill="none" stroke="black" d="M473.12,-649.81C527.38,-629.27 623.43,-592.91 676.03,-573"/>
<polygon fill="black" stroke="black" points="677.52,-576.18 685.63,-569.36 675.04,-569.63 677.52,-576.18"/>
</g>
<!-- N29 -->
<g id="node27" class="node">
<title>N29</title>
<polygon fill="none" stroke="black" points="609,-684 555,-684 555,-648 609,-648 609,-684"/>
<text text-anchor="middle" x="582" y="-662.3" font-family="Times,serif" font-size="14.00">fact</text>
</g>
<!-- N30 -->
<g id="node28" class="node">
<title>N30</title>
<polygon fill="none" stroke="black" points="735,-684 681,-684 681,-648 735,-648 735,-684"/>
<text text-anchor="middle" x="708" y="-662.3" font-family="Times,serif" font-size="14.00">n</text>
</g>
<!-- N28 -->
<g id="node29" class="node">
<title>N28</title>
<polygon fill="none" stroke="black" points="614,-792 560,-792 560,-756 614,-756 614,-792"/>
<text text-anchor="middle" x="587" y="-770.3" font-family="Times,serif" font-size="14.00">Call</text>
</g>
<!-- N28&#45;&gt;N29 -->
<g id="edge26" class="edge">
<title>N28&#45;&gt;N29</title>
<path fill="none" stroke="black" d="M586.2,-755.97C585.41,-739.38 584.21,-713.88 583.29,-694.43"/>
<polygon fill="black" stroke="black" points="586.79,-694.16 582.82,-684.34 579.79,-694.49 586.79,-694.16"/>
</g>
<!-- N28&#45;&gt;N30 -->
<g id="edge27" class="edge">
<title>N28&#45;&gt;N30</title>
<path fill="none" stroke="black" d="M606.44,-755.97C626.52,-738.38 658.02,-710.78 680.62,-690.99"/>
<polygon fill="black" stroke="black" points="682.99,-693.56 688.21,-684.34 678.38,-688.3 682.99,-693.56"/>
</g>
<!-- N1 -->
<g id="node30" class="node">
<title>N1</title>
<polygon fill="none" stroke="black" points="534,-900 480,-900 480,-864 534,-864 534,-900"/>
<text text-anchor="middle" x="507" y="-878.3" font-family="Times,serif" font-size="14.00">let</text>
</g>
<!-- N1&#45;&gt;N2 -->
<g id="edge28" class="edge">
<title>N1&#45;&gt;N2</title>
<path fill="none" stroke="black" d="M494.15,-863.97C481.22,-846.84 461.13,-820.22 446.29,-800.56"/>
<polygon fill="black" stroke="black" points="448.91,-798.21 440.09,-792.34 443.32,-802.43 448.91,-798.21"/>
</g>
<!-- N1&#45;&gt;N28 -->
<g id="edge29" class="edge">
<title>N1&#45;&gt;N28</title>
<path fill="none" stroke="black" d="M519.85,-863.97C532.78,-846.84 552.87,-820.22 567.71,-800.56"/>
<polygon fill="black" stroke="black" points="570.68,-802.43 573.91,-792.34 565.09,-798.21 570.68,-802.43"/>
</g>
<!-- N0 -->
<g id="node31" class="node">
<title>N0</title>
<polygon fill="none" stroke="black" points="546.5,-1008 467.5,-1008 467.5,-972 546.5,-972 546.5,-1008"/>
<text text-anchor="middle" x="507" y="-986.3" font-family="Times,serif" font-size="14.00">Program</text>
</g>
<!-- N0&#45;&gt;N1 -->
<g id="edge30" class="edge">
<title>N0&#45;&gt;N1</title>
<path fill="none" stroke="black" d="M507,-971.97C507,-955.38 507,-929.88 507,-910.43"/>
<polygon fill="black" stroke="black" points="510.5,-910.34 507,-900.34 503.5,-910.34 510.5,-910.34"/>
</g>
</g>
</svg>
